<?xml version="1.0" standalone="no"?>
<!DOCTYPE svg PUBLIC "-//W3C//DTD SVG 20010904//EN"
 "http://www.w3.org/TR/2001/REC-SVG-20010904/DTD/svg10.dtd">
<svg version="1.0" xmlns="http://www.w3.org/2000/svg"
 width="512.000000pt" height="512.000000pt" viewBox="0 0 512.000000 512.000000"
 preserveAspectRatio="xMidYMid meet">
<metadata>
Created by potrace 1.14, written by Peter Selinger 2001-2017
</metadata>
<g transform="translate(0.000000,512.000000) scale(0.100000,-0.100000)"
fill="#000000" stroke="none">
<path d="M2557 4474 c-1 -1 -51 -4 -112 -8 -98 -5 -259 -27 -304 -40 -9 -3
-27 -7 -41 -10 -38 -7 -190 -54 -235 -72 -316 -129 -553 -321 -713 -576 -23
-37 -42 -70 -42 -72 0 -3 -11 -29 -24 -58 -43 -97 -49 -113 -53 -133 -13 -70
-27 -96 -86 -156 -84 -84 -136 -156 -187 -257 -36 -72 -44 -81 -63 -77 -71 18
-152 3 -194 -37 -43 -40 -57 -78 -59 -163 -2 -44 -3 -96 -4 -115 0 -19 1 -87
2 -150 4 -130 15 -161 75 -207 33 -26 44 -28 122 -28 l86 0 34 -70 c72 -148
195 -289 329 -375 68 -44 71 -47 98 -120 16 -41 29 -77 30 -80 10 -46 136
-295 192 -380 149 -227 346 -407 552 -505 50 -24 176 -73 206 -80 176 -43 215
-48 374 -49 91 0 187 2 214 7 335 50 629 217 841 477 121 150 239 361 309 555
43 118 47 125 71 139 158 90 332 280 396 433 l21 51 56 -5 c72 -7 129 9 170
45 55 49 60 75 60 307 0 218 -5 253 -46 298 -43 48 -132 71 -207 54 -29 -7
-31 -5 -55 50 -38 89 -112 193 -200 282 -46 46 -80 89 -80 100 0 27 -33 119
-76 210 -148 314 -456 579 -828 710 -82 29 -174 55 -227 65 -13 2 -24 5 -24 6
0 1 -16 3 -35 5 -19 2 -49 6 -66 10 -52 9 -270 25 -277 19z m223 -185 c197
-27 336 -68 498 -146 261 -125 447 -299 566 -526 23 -44 30 -67 21 -63 -73 27
-194 57 -260 62 -44 4 -183 7 -310 8 l-230 1 -2 45 c-2 58 -5 69 -27 105 -21
35 -73 72 -113 80 -26 5 -685 6 -728 1 -52 -5 -133 -88 -136 -138 -1 -10 -3
-27 -4 -38 -1 -11 -3 -28 -4 -38 -1 -18 -14 -19 -213 -18 -267 1 -424 -11
-470 -35 -10 -5 -18 -7 -18 -4 0 2 -23 -4 -50 -15 -28 -11 -55 -20 -60 -20
-13 0 53 123 108 200 83 116 220 241 357 322 109 65 284 140 381 163 10 3 46
11 79 19 162 40 459 57 615 35z m845 -840 c344 -65 595 -319 650 -654 51 -313
-83 -616 -350 -793 -77 -51 -213 -106 -290 -117 -27 -4 -264 -9 -526 -10 -262
-1 -492 -5 -511 -9 -45 -8 -70 -52 -57 -99 5 -16 10 -31 11 -32 28 -22 81 -25
530 -25 481 1 554 3 616 20 28 7 32 6 32 -11 0 -10 -4 -19 -8 -19 -5 0 -9 -6
-9 -14 0 -13 -73 -176 -83 -186 -3 -3 -16 -25 -29 -50 -44 -83 -135 -203 -216
-285 -90 -91 -178 -157 -286 -214 -80 -42 -226 -94 -239 -86 -5 3 -11 1 -14
-4 -4 -5 -25 -12 -49 -16 -23 -4 -51 -9 -62 -12 -11 -2 -76 -6 -145 -8 -112
-3 -194 3 -270 20 -14 3 -36 8 -50 11 -59 11 -190 60 -259 95 -258 135 -470
382 -601 700 -35 84 -36 92 -12 85 21 -6 75 -16 122 -21 41 -5 416 -6 444 -2
57 10 74 103 24 140 -24 18 -44 20 -255 22 -180 1 -243 5 -298 19 -154 39
-321 144 -418 262 -74 90 -146 229 -163 317 -3 17 -8 43 -11 57 -13 62 -11
229 3 293 68 323 326 572 646 626 73 12 2069 13 2133 0z"/>
<path d="M1480 3324 c-154 -26 -265 -87 -379 -207 -34 -36 -116 -160 -116
-177 0 -3 -3 -10 -7 -15 -4 -6 -16 -46 -27 -88 -70 -269 29 -549 253 -713 69
-51 182 -100 264 -116 65 -12 2059 -16 2154 -4 131 17 266 85 368 186 171 170
240 415 179 639 -29 108 -31 114 -65 172 -88 150 -228 258 -404 312 -63 19
-98 19 -1108 21 -747 1 -1063 -2 -1112 -10z m1091 -363 c20 -20 29 -39 29 -61
0 -27 -31 -62 -264 -296 -234 -234 -268 -264 -296 -264 -17 0 -39 4 -49 10
-24 13 -45 64 -37 93 5 22 467 496 518 531 34 24 66 19 99 -13z m490 0 c20
-21 29 -39 29 -62 0 -30 -26 -59 -263 -296 -278 -278 -280 -279 -341 -252 -28
13 -48 53 -42 84 3 11 5 23 5 26 2 13 497 503 521 516 38 20 59 16 91 -16z"/>
<path d="M2225 1870 c-69 -6 -83 -12 -96 -47 -14 -36 5 -87 38 -102 32 -15
159 -16 195 -2 32 12 48 39 48 80 0 60 -56 82 -185 71z"/>
<path d="M2150 1561 c0 -6 4 -13 10 -16 6 -3 7 1 4 9 -7 18 -14 21 -14 7z"/>
<path d="M2140 1467 c-37 -19 -54 -61 -41 -99 33 -94 267 -208 436 -211 154
-4 320 56 436 155 71 61 57 147 -26 162 -24 4 -45 -5 -110 -48 -148 -99 -279
-123 -414 -77 -62 22 -150 72 -183 104 -22 22 -68 29 -98 14z"/>
<path d="M4100 4126 c0 -2 8 -10 18 -17 15 -13 16 -12 3 4 -13 16 -21 21 -21
13z"/>
</g>
</svg>
